<svg width="220" height="72" viewBox="0 0 220 72" fill="none" xmlns="http://www.w3.org/2000/svg">
<rect x="0.5" y="0.5" width="219" height="71" fill="none"/>
<path d="M42.623 32.8301V36.9434H29.2637V32.8301H42.623ZM30.8281 22.4062V48H25.5547V22.4062H30.8281ZM46.3848 22.4062V48H41.1289V22.4062H46.3848ZM60.9219 43.7109V35.2383C60.9219 34.6289 60.8223 34.1074 60.623 33.6738C60.4238 33.2285 60.1133 32.8828 59.6914 32.6367C59.2812 32.3906 58.748 32.2676 58.0918 32.2676C57.5293 32.2676 57.043 32.3672 56.6328 32.5664C56.2227 32.7539 55.9062 33.0293 55.6836 33.3926C55.4609 33.7441 55.3496 34.1602 55.3496 34.6406H50.2871C50.2871 33.832 50.4746 33.0645 50.8496 32.3379C51.2246 31.6113 51.7695 30.9727 52.4844 30.4219C53.1992 29.8594 54.0488 29.4199 55.0332 29.1035C56.0293 28.7871 57.1426 28.6289 58.373 28.6289C59.8496 28.6289 61.1621 28.875 62.3105 29.3672C63.459 29.8594 64.3613 30.5977 65.0176 31.582C65.6855 32.5664 66.0195 33.7969 66.0195 35.2734V43.4121C66.0195 44.4551 66.084 45.3105 66.2129 45.9785C66.3418 46.6348 66.5293 47.209 66.7754 47.7012V48H61.6602C61.4141 47.4844 61.2266 46.8398 61.0977 46.0664C60.9805 45.2812 60.9219 44.4961 60.9219 43.7109ZM61.5898 36.416L61.625 39.2812H58.7949C58.127 39.2812 57.5469 39.3574 57.0547 39.5098C56.5625 39.6621 56.1582 39.8789 55.8418 40.1602C55.5254 40.4297 55.291 40.7461 55.1387 41.1094C54.998 41.4727 54.9277 41.8711 54.9277 42.3047C54.9277 42.7383 55.0273 43.1309 55.2266 43.4824C55.4258 43.8223 55.7129 44.0918 56.0879 44.291C56.4629 44.4785 56.9023 44.5723 57.4062 44.5723C58.168 44.5723 58.8301 44.4199 59.3926 44.1152C59.9551 43.8105 60.3887 43.4355 60.6934 42.9902C61.0098 42.5449 61.1738 42.123 61.1855 41.7246L62.5215 43.8691C62.334 44.3496 62.0762 44.8477 61.748 45.3633C61.4316 45.8789 61.0273 46.3652 60.5352 46.8223C60.043 47.2676 59.4512 47.6367 58.7598 47.9297C58.0684 48.2109 57.248 48.3516 56.2988 48.3516C55.0918 48.3516 53.9961 48.1113 53.0117 47.6309C52.0391 47.1387 51.2656 46.4648 50.6914 45.6094C50.1289 44.7422 49.8477 43.7578 49.8477 42.6562C49.8477 41.6602 50.0352 40.7754 50.4102 40.002C50.7852 39.2285 51.3359 38.5781 52.0625 38.0508C52.8008 37.5117 53.7207 37.1074 54.8223 36.8379C55.9238 36.5566 57.2012 36.416 58.6543 36.416H61.5898ZM74.9844 32.918V48H69.9043V28.9805H74.668L74.9844 32.918ZM74.2812 37.8223H72.875C72.875 36.498 73.0332 35.2793 73.3496 34.166C73.6777 33.041 74.1523 32.0684 74.7734 31.248C75.4062 30.416 76.1855 29.7715 77.1113 29.3145C78.0371 28.8574 79.1094 28.6289 80.3281 28.6289C81.1719 28.6289 81.9453 28.7578 82.6484 29.0156C83.3516 29.2617 83.9551 29.6543 84.459 30.1934C84.9746 30.7207 85.373 31.4121 85.6543 32.2676C85.9355 33.1113 86.0762 34.125 86.0762 35.3086V48H81.0137V35.8711C81.0137 35.0039 80.8965 34.3359 80.6621 33.8672C80.4277 33.3984 80.0938 33.0703 79.6602 32.8828C79.2383 32.6953 78.7285 32.6016 78.1309 32.6016C77.4746 32.6016 76.9004 32.7363 76.4082 33.0059C75.9277 33.2754 75.5293 33.6504 75.2129 34.1309C74.8965 34.5996 74.6621 35.1504 74.5098 35.7832C74.3574 36.416 74.2812 37.0957 74.2812 37.8223ZM85.6016 37.2422L83.791 37.4707C83.791 36.2285 83.9434 35.0742 84.248 34.0078C84.5645 32.9414 85.0273 32.0039 85.6367 31.1953C86.2578 30.3867 87.0254 29.7598 87.9395 29.3145C88.8535 28.8574 89.9082 28.6289 91.1035 28.6289C92.0176 28.6289 92.8496 28.7637 93.5996 29.0332C94.3496 29.291 94.9883 29.707 95.5156 30.2812C96.0547 30.8438 96.4648 31.582 96.7461 32.4961C97.0391 33.4102 97.1855 34.5293 97.1855 35.8535V48H92.1055V35.8535C92.1055 34.9746 91.9883 34.3066 91.7539 33.8496C91.5312 33.3809 91.2031 33.0586 90.7695 32.8828C90.3477 32.6953 89.8438 32.6016 89.2578 32.6016C88.6484 32.6016 88.1152 32.7246 87.6582 32.9707C87.2012 33.2051 86.8203 33.5332 86.5156 33.9551C86.2109 34.377 85.9824 34.8691 85.8301 35.4316C85.6777 35.9824 85.6016 36.5859 85.6016 37.2422ZM109.859 48.3516C108.383 48.3516 107.059 48.1172 105.887 47.6484C104.715 47.168 103.719 46.5059 102.898 45.6621C102.09 44.8184 101.469 43.8398 101.035 42.7266C100.602 41.6016 100.385 40.4062 100.385 39.1406V38.4375C100.385 36.9961 100.59 35.6777 101 34.4824C101.41 33.2871 101.996 32.25 102.758 31.3711C103.531 30.4922 104.469 29.8184 105.57 29.3496C106.672 28.8691 107.914 28.6289 109.297 28.6289C110.645 28.6289 111.84 28.8516 112.883 29.2969C113.926 29.7422 114.799 30.375 115.502 31.1953C116.217 32.0156 116.756 33 117.119 34.1484C117.482 35.2852 117.664 36.5508 117.664 37.9453V40.0547H102.547V36.6797H112.689V36.293C112.689 35.5898 112.561 34.9629 112.303 34.4121C112.057 33.8496 111.682 33.4043 111.178 33.0762C110.674 32.748 110.029 32.584 109.244 32.584C108.576 32.584 108.002 32.7305 107.521 33.0234C107.041 33.3164 106.648 33.7266 106.344 34.2539C106.051 34.7812 105.828 35.4023 105.676 36.1172C105.535 36.8203 105.465 37.5938 105.465 38.4375V39.1406C105.465 39.9023 105.57 40.6055 105.781 41.25C106.004 41.8945 106.314 42.4512 106.713 42.9199C107.123 43.3887 107.615 43.752 108.189 44.0098C108.775 44.2676 109.438 44.3965 110.176 44.3965C111.09 44.3965 111.939 44.2207 112.725 43.8691C113.521 43.5059 114.207 42.9609 114.781 42.2344L117.242 44.9062C116.844 45.4805 116.299 46.0312 115.607 46.5586C114.928 47.0859 114.107 47.5195 113.146 47.8594C112.186 48.1875 111.09 48.3516 109.859 48.3516ZM125.609 20.9824V48H120.547V20.9824H125.609ZM137.598 28.9805L129.336 38.4023L124.906 42.8848L123.061 39.2285L126.576 34.7637L131.516 28.9805H137.598ZM132.342 48L126.717 39.2109L130.215 36.1523L138.178 48H132.342ZM154.666 22.4062V48H149.41V22.4062H154.666ZM164.246 33.041V48H159.184V28.9805H163.93L164.246 33.041ZM163.508 37.8223H162.137C162.137 36.416 162.318 35.1504 162.682 34.0254C163.045 32.8887 163.555 31.9219 164.211 31.125C164.867 30.3164 165.646 29.7012 166.549 29.2793C167.463 28.8457 168.482 28.6289 169.607 28.6289C170.498 28.6289 171.312 28.7578 172.051 29.0156C172.789 29.2734 173.422 29.6836 173.949 30.2461C174.488 30.8086 174.898 31.5527 175.18 32.4785C175.473 33.4043 175.619 34.5352 175.619 35.8711V48H170.521V35.8535C170.521 35.0098 170.404 34.3535 170.17 33.8848C169.936 33.416 169.59 33.0879 169.133 32.9004C168.688 32.7012 168.137 32.6016 167.48 32.6016C166.801 32.6016 166.209 32.7363 165.705 33.0059C165.213 33.2754 164.803 33.6504 164.475 34.1309C164.158 34.5996 163.918 35.1504 163.754 35.7832C163.59 36.416 163.508 37.0957 163.508 37.8223ZM184.531 20.9824V48H179.469V20.9824H184.531ZM196.52 28.9805L188.258 38.4023L183.828 42.8848L181.982 39.2285L185.498 34.7637L190.438 28.9805H196.52ZM191.264 48L185.639 39.2109L189.137 36.1523L197.1 48H191.264Z" fill="black"/>
<rect x="0.5" y="0.5" width="219" height="71" stroke="black"/>
</svg>
